<svg width="166" height="41" viewBox="0 0 166 41" fill="none" xmlns="http://www.w3.org/2000/svg">
<path d="M17.53 14.964C19.182 15.272 20.54 16.098 21.604 17.442C22.668 18.786 23.2 20.326 23.2 22.062C23.2 23.63 22.808 25.016 22.024 26.22C21.268 27.396 20.162 28.32 18.706 28.992C17.25 29.664 15.528 30 13.54 30H0.898V0.683999H12.994C14.982 0.683999 16.69 1.006 18.118 1.65C19.574 2.294 20.666 3.19 21.394 4.338C22.15 5.486 22.528 6.788 22.528 8.244C22.528 9.952 22.066 11.38 21.142 12.528C20.246 13.676 19.042 14.488 17.53 14.964ZM6.778 12.78H12.154C13.554 12.78 14.632 12.472 15.388 11.856C16.144 11.212 16.522 10.302 16.522 9.126C16.522 7.95 16.144 7.04 15.388 6.396C14.632 5.752 13.554 5.43 12.154 5.43H6.778V12.78ZM12.7 25.212C14.128 25.212 15.234 24.876 16.018 24.204C16.83 23.532 17.236 22.58 17.236 21.348C17.236 20.088 16.816 19.108 15.976 18.408C15.136 17.68 14.002 17.316 12.574 17.316H6.778V25.212H12.7ZM33.7663 10.344C34.5223 9.112 35.5023 8.146 36.7063 7.446C37.9383 6.746 39.3383 6.396 40.9063 6.396V12.57H39.3523C37.5043 12.57 36.1043 13.004 35.1523 13.872C34.2283 14.74 33.7663 16.252 33.7663 18.408V30H27.8863V6.732H33.7663V10.344ZM43.3547 18.282C43.3547 15.93 43.8167 13.844 44.7407 12.024C45.6928 10.204 46.9668 8.804 48.5628 7.824C50.1868 6.844 51.9928 6.354 53.9808 6.354C55.7168 6.354 57.2288 6.704 58.5168 7.404C59.8328 8.104 60.8828 8.986 61.6668 10.05V6.732H67.5888V30H61.6668V26.598C60.9108 27.69 59.8608 28.6 58.5168 29.328C57.2008 30.028 55.6748 30.378 53.9388 30.378C51.9788 30.378 50.1868 29.874 48.5628 28.866C46.9668 27.858 45.6928 26.444 44.7407 24.624C43.8167 22.776 43.3547 20.662 43.3547 18.282ZM61.6668 18.366C61.6668 16.938 61.3868 15.72 60.8268 14.712C60.2668 13.676 59.5108 12.892 58.5588 12.36C57.6068 11.8 56.5848 11.52 55.4928 11.52C54.4008 11.52 53.3928 11.786 52.4688 12.318C51.5448 12.85 50.7888 13.634 50.2008 14.67C49.6408 15.678 49.3608 16.882 49.3608 18.282C49.3608 19.682 49.6408 20.914 50.2008 21.978C50.7888 23.014 51.5448 23.812 52.4688 24.372C53.4208 24.932 54.4288 25.212 55.4928 25.212C56.5848 25.212 57.6068 24.946 58.5588 24.414C59.5108 23.854 60.2668 23.07 60.8268 22.062C61.3868 21.026 61.6668 19.794 61.6668 18.366ZM95.5916 6.732L81.1856 41.004H74.9276L79.9676 29.412L70.6436 6.732H77.2376L83.2436 22.986L89.3336 6.732H95.5916ZM111.655 6.396C114.427 6.396 116.667 7.278 118.375 9.042C120.083 10.778 120.937 13.214 120.937 16.35V30H115.057V17.148C115.057 15.3 114.595 13.886 113.671 12.906C112.747 11.898 111.487 11.394 109.891 11.394C108.267 11.394 106.979 11.898 106.027 12.906C105.103 13.886 104.641 15.3 104.641 17.148V30H98.7613V6.732H104.641V9.63C105.425 8.622 106.419 7.838 107.623 7.278C108.855 6.69 110.199 6.396 111.655 6.396ZM148.159 17.862C148.159 18.702 148.103 19.458 147.991 20.13H130.981C131.121 21.81 131.709 23.126 132.745 24.078C133.781 25.03 135.055 25.506 136.567 25.506C138.751 25.506 140.305 24.568 141.229 22.692H147.571C146.899 24.932 145.611 26.78 143.707 28.236C141.803 29.664 139.465 30.378 136.693 30.378C134.453 30.378 132.437 29.888 130.645 28.908C128.881 27.9 127.495 26.486 126.487 24.666C125.507 22.846 125.017 20.746 125.017 18.366C125.017 15.958 125.507 13.844 126.487 12.024C127.467 10.204 128.839 8.804 130.603 7.824C132.367 6.844 134.397 6.354 136.693 6.354C138.905 6.354 140.879 6.83 142.615 7.782C144.379 8.734 145.737 10.092 146.689 11.856C147.669 13.592 148.159 15.594 148.159 17.862ZM142.069 16.182C142.041 14.67 141.495 13.466 140.431 12.57C139.367 11.646 138.065 11.184 136.525 11.184C135.069 11.184 133.837 11.632 132.829 12.528C131.849 13.396 131.247 14.614 131.023 16.182H142.069ZM158.331 10.344C159.087 9.112 160.067 8.146 161.271 7.446C162.503 6.746 163.903 6.396 165.471 6.396V12.57H163.917C162.069 12.57 160.669 13.004 159.717 13.872C158.793 14.74 158.331 16.252 158.331 18.408V30H152.451V6.732H158.331V10.344Z" fill="white"/>
</svg>
