<svg width="146" height="36" viewBox="0 0 146 36" fill="none" xmlns="http://www.w3.org/2000/svg">
<path d="M15.3836 13.04C16.8476 13.352 18.0236 14.084 18.9116 15.236C19.7996 16.364 20.2436 17.66 20.2436 19.124C20.2436 21.236 19.4996 22.916 18.0116 24.164C16.5476 25.388 14.4956 26 11.8556 26H0.0835571V0.728027H11.4596C14.0276 0.728027 16.0316 1.31603 17.4716 2.49203C18.9356 3.66803 19.6676 5.26403 19.6676 7.28003C19.6676 8.76803 19.2716 10.004 18.4796 10.988C17.7116 11.972 16.6796 12.656 15.3836 13.04ZM6.23956 10.952H10.2716C11.2796 10.952 12.0476 10.736 12.5756 10.304C13.1276 9.84803 13.4036 9.18803 13.4036 8.32403C13.4036 7.46003 13.1276 6.80003 12.5756 6.34403C12.0476 5.88803 11.2796 5.66003 10.2716 5.66003H6.23956V10.952ZM10.7756 21.032C11.8076 21.032 12.5996 20.804 13.1516 20.348C13.7276 19.868 14.0156 19.184 14.0156 18.296C14.0156 17.408 13.7156 16.712 13.1156 16.208C12.5396 15.704 11.7356 15.452 10.7036 15.452H6.23956V21.032H10.7756Z" fill="white"/>
<path d="M29.97 9.26003C30.69 8.15603 31.59 7.29203 32.67 6.66803C33.75 6.02003 34.95 5.69603 36.27 5.69603V12.212H34.578C33.042 12.212 31.89 12.548 31.122 13.22C30.354 13.868 29.97 15.02 29.97 16.676V26H23.814V5.91203H29.97V9.26003Z" fill="white"/>
<path d="M37.9885 15.92C37.9885 13.856 38.3725 12.044 39.1405 10.484C39.9325 8.92403 41.0005 7.72403 42.3445 6.88403C43.6885 6.04403 45.1885 5.62403 46.8445 5.62403C48.2605 5.62403 49.4965 5.91203 50.5525 6.48803C51.6325 7.06403 52.4605 7.82003 53.0365 8.75603V5.91203H59.1925V26H53.0365V23.156C52.4365 24.092 51.5965 24.848 50.5165 25.424C49.4605 26 48.2245 26.288 46.8085 26.288C45.1765 26.288 43.6885 25.868 42.3445 25.028C41.0005 24.164 39.9325 22.952 39.1405 21.392C38.3725 19.808 37.9885 17.984 37.9885 15.92ZM53.0365 15.956C53.0365 14.42 52.6045 13.208 51.7405 12.32C50.9005 11.432 49.8685 10.988 48.6445 10.988C47.4205 10.988 46.3765 11.432 45.5125 12.32C44.6725 13.184 44.2525 14.384 44.2525 15.92C44.2525 17.456 44.6725 18.68 45.5125 19.592C46.3765 20.48 47.4205 20.924 48.6445 20.924C49.8685 20.924 50.9005 20.48 51.7405 19.592C52.6045 18.704 53.0365 17.492 53.0365 15.956Z" fill="white"/>
<path d="M84.1661 5.91203L71.5661 35.54H64.9421L69.5501 25.316L61.3781 5.91203H68.2541L72.8981 18.476L77.5061 5.91203H84.1661Z" fill="white"/>
<path d="M98.6321 5.69603C100.984 5.69603 102.856 6.46403 104.248 8.00003C105.664 9.51203 106.372 11.6 106.372 14.264V26H100.252V15.092C100.252 13.748 99.9042 12.704 99.2082 11.96C98.5122 11.216 97.5762 10.844 96.4002 10.844C95.2242 10.844 94.2882 11.216 93.5922 11.96C92.8962 12.704 92.5481 13.748 92.5481 15.092V26H86.3922V5.91203H92.5481V8.57603C93.1721 7.68803 94.0122 6.99203 95.0682 6.48803C96.1242 5.96003 97.3121 5.69603 98.6321 5.69603Z" fill="white"/>
<path d="M129.586 15.632C129.586 16.208 129.55 16.808 129.478 17.432H115.546C115.642 18.68 116.038 19.64 116.734 20.312C117.454 20.96 118.33 21.284 119.362 21.284C120.898 21.284 121.966 20.636 122.566 19.34H129.118C128.782 20.66 128.17 21.848 127.282 22.904C126.418 23.96 125.326 24.788 124.006 25.388C122.686 25.988 121.21 26.288 119.578 26.288C117.61 26.288 115.858 25.868 114.322 25.028C112.786 24.188 111.586 22.988 110.722 21.428C109.858 19.868 109.426 18.044 109.426 15.956C109.426 13.868 109.846 12.044 110.686 10.484C111.55 8.92403 112.75 7.72403 114.286 6.88403C115.822 6.04403 117.586 5.62403 119.578 5.62403C121.522 5.62403 123.25 6.03203 124.762 6.84803C126.274 7.66403 127.45 8.82803 128.29 10.34C129.154 11.852 129.586 13.616 129.586 15.632ZM123.286 14.012C123.286 12.956 122.926 12.116 122.206 11.492C121.486 10.868 120.586 10.556 119.506 10.556C118.474 10.556 117.598 10.856 116.878 11.456C116.182 12.056 115.75 12.908 115.582 14.012H123.286Z" fill="white"/>
<path d="M138.99 9.26003C139.71 8.15603 140.61 7.29203 141.69 6.66803C142.77 6.02003 143.97 5.69603 145.29 5.69603V12.212H143.598C142.062 12.212 140.91 12.548 140.142 13.22C139.374 13.868 138.99 15.02 138.99 16.676V26H132.834V5.91203H138.99V9.26003Z" fill="white"/>
</svg>
